# xmcd
#
# Track frame offsets:
# 150
# 8325
# 21210
# 34920
# 50152
# 63689
# 88484
# 105239
# 124761
# 138501
# 159876
# 175378
#
# Disc length: 2380 seconds
#
#
# Revision: 0
# Processed by: cddbd v1.5.1PL2 Copyright (c) Steve Scherf et al.
# Submitted via: FreeRIP 2.942 
#
DISCID=9d094a0c
DTITLE=Blues Brothers - Briefcase Full Of Blues
DYEAR=1978
DGENRE=Blues
TTITLE0=Opening, I Can't Turn You Loose
TTITLE1=Hey Bartender
TTITLE2=Messin' With The Kid
TTITLE3=(I Got Everything I Need) Almost
TTITLE4=Rubber Biscuit
TTITLE5=Shot Gun Blues
TTITLE6=Groove Me
TTITLE7=I Don't Know
TTITLE8=Soul Man
TTITLE9="B" Movie Box Car Blues
TTITLE10=Flip, Flop and Fly
TTITLE11=Closing: I Can't Turn You Loose
EXTD=
EXTT0=
EXTT1=
EXTT2=
EXTT3=
EXTT4=
EXTT5=
EXTT6=
EXTT7=
EXTT8=
EXTT9=
EXTT10=
EXTT11=
PLAYORDER=
